solid OpenSCAD_Model
  facet normal 0 0 -1
    outer loop
      vertex -12.2135 -0.881678 0
      vertex -12.2135 0.881678 0
      vertex -10.8611 -1.32109 0
    endloop
  endfacet
  facet normal 0 0 -1
    outer loop
      vertex -10.8611 -1.32109 0
      vertex -12.2135 0.881678 0
      vertex -10.8611 1.32109 0
    endloop
  endfacet
  facet normal 0 0 -1
    outer loop
      vertex -10.8611 -1.32109 0
      vertex -10.8611 1.32109 0
      vertex -10.7596 2.28703 0
    endloop
  endfacet
  facet normal 0 0 -1
    outer loop
      vertex -10.8611 -1.32109 0
      vertex -10.7596 2.28703 0
      vertex -10.049 4.4741 0
    endloop
  endfacet
  facet normal 0 0 -1
    outer loop
      vertex -10.8611 -1.32109 0
      vertex -10.049 4.4741 0
      vertex -8.89919 6.46564 0
    endloop
  endfacet
  facet normal 0 0 -1
    outer loop
      vertex -10.8611 -1.32109 0
      vertex -8.89919 6.46564 0
      vertex -7.36044 8.17459 0
    endloop
  endfacet
  facet normal 0 0 -1
    outer loop
      vertex -9.88992 0.646564 0
      vertex -7.36044 8.17459 0
      vertex -5.5 9.52628 0
    endloop
  endfacet
  facet normal 0 0 -1
    outer loop
      vertex -6.53396 6.18929 0
      vertex -5.5 9.52628 0
      vertex -3.39919 10.4616 0
    endloop
  endfacet
  facet normal 0 0 -1
    outer loop
      vertex -3.33124 8.36079 0
      vertex -3.39919 10.4616 0
      vertex -1.14981 10.9397 0
    endloop
  endfacet
  facet normal 0 0 -1
    outer loop
      vertex 0 10.9397 0
      vertex 0 11 0
      vertex 5.5 11 0
    endloop
  endfacet
  facet normal 0 0 -1
    outer loop
      vertex 0 10.9397 0
      vertex 5.5 11 0
      vertex 0 9 0
    endloop
  endfacet
  facet normal 0 0 -1
    outer loop
      vertex -3.33124 8.36079 0
      vertex -1.14981 10.9397 0
      vertex 0 10.9397 0
    endloop
  endfacet
  facet normal 0 0 -1
    outer loop
      vertex -1.45604 8.88144 0
      vertex 0 9 0
      vertex 0 8.96038 0
    endloop
  endfacet
  facet normal 0 0 -1
    outer loop
      vertex -3.33124 8.36079 0
      vertex 0 10.9397 0
      vertex -1.45604 8.88144 0
    endloop
  endfacet
  facet normal 0 0 -1
    outer loop
      vertex 0 10.9397 0
      vertex 0 9 0
      vertex -1.45604 8.88144 0
    endloop
  endfacet
  facet normal 0 0 -1
    outer loop
      vertex 8.89919 -6.46564 0
      vertex 5.82648 -6.85946 0
      vertex 10.049 -4.4741 0
    endloop
  endfacet
  facet normal 0 0 -1
    outer loop
      vertex -5.05068 7.4492 0
      vertex -3.39919 10.4616 0
      vertex -3.33124 8.36079 0
    endloop
  endfacet
  facet normal 0 0 -1
    outer loop
      vertex -6.53396 6.18929 0
      vertex -3.39919 10.4616 0
      vertex -5.05068 7.4492 0
    endloop
  endfacet
  facet normal 0 0 -1
    outer loop
      vertex -9.88992 0.646564 0
      vertex -7.71171 4.63998 0
      vertex -8.52888 2.87371 0
    endloop
  endfacet
  facet normal 0 0 -1
    outer loop
      vertex -7.71171 4.63998 0
      vertex -5.5 9.52628 0
      vertex -6.53396 6.18929 0
    endloop
  endfacet
  facet normal 0 0 -1
    outer loop
      vertex -9.88992 0.646564 0
      vertex -8.94724 0.973071 0
      vertex -8.94724 0.952858 0
    endloop
  endfacet
  facet normal 0 0 -1
    outer loop
      vertex -9.88992 0.646564 0
      vertex -8.52888 2.87371 0
      vertex -8.94724 0.973071 0
    endloop
  endfacet
  facet normal 0 0 -1
    outer loop
      vertex 8.89919 -6.46564 0
      vertex 4.21568 -7.95161 0
      vertex 5.82648 -6.85946 0
    endloop
  endfacet
  facet normal 0 0 -1
    outer loop
      vertex 10.049 -4.4741 0
      vertex 7.16484 -5.44657 0
      vertex 8.16818 -3.779 0
    endloop
  endfacet
  facet normal 0 0 -1
    outer loop
      vertex -10.8611 -1.32109 0
      vertex -7.36044 8.17459 0
      vertex -9.88992 0.646564 0
    endloop
  endfacet
  facet normal 0 0 -1
    outer loop
      vertex -9.88992 -0.646564 0
      vertex -10.8611 -1.32109 0
      vertex -9.88992 0.646564 0
    endloop
  endfacet
  facet normal 0 0 -1
    outer loop
      vertex -10.7596 -2.28703 0
      vertex -7.36044 -8.17459 0
      vertex -10.049 -4.4741 0
    endloop
  endfacet
  facet normal 0 0 -1
    outer loop
      vertex 11 8.17157 0
      vertex 13.1213 13.1213 0
      vertex 14.5355 11.7071 0
    endloop
  endfacet
  facet normal 0 0 -1
    outer loop
      vertex -10.8611 -1.32109 0
      vertex -8.94724 -0.952858 0
      vertex -8.94724 -0.973071 0
    endloop
  endfacet
  facet normal 0 0 -1
    outer loop
      vertex 0 9 0
      vertex 5.5 11 0
      vertex 5.5 9 0
    endloop
  endfacet
  facet normal 0 0 -1
    outer loop
      vertex -8.94724 -0.973071 0
      vertex -8.52888 -2.87371 0
      vertex -10.8611 -1.32109 0
    endloop
  endfacet
  facet normal 0 0 -1
    outer loop
      vertex -8.94724 -0.952858 0
      vertex -10.8611 -1.32109 0
      vertex -9.88992 -0.646564 0
    endloop
  endfacet
  facet normal 0 0 -1
    outer loop
      vertex 9 0 0
      vertex 9 11 0
      vertex 11 11 0
    endloop
  endfacet
  facet normal 0 0 -1
    outer loop
      vertex 9 0 0
      vertex 11 11 0
      vertex 8.78958 -1.93473 0
    endloop
  endfacet
  facet normal 0 0 -1
    outer loop
      vertex 11 8.17157 0
      vertex 11 11 0
      vertex 13.1213 13.1213 0
    endloop
  endfacet
  facet normal 0 0 -1
    outer loop
      vertex 11 1.41421 0
      vertex 8.78958 -1.93473 0
      vertex 11 8.17157 0
    endloop
  endfacet
  facet normal 0 0 -1
    outer loop
      vertex -10.7596 -2.28703 0
      vertex -5.5 -9.52628 0
      vertex -7.36044 -8.17459 0
    endloop
  endfacet
  facet normal 0 0 -1
    outer loop
      vertex 8.78958 -1.93473 0
      vertex 11 11 0
      vertex 11 8.17157 0
    endloop
  endfacet
  facet normal 0 0 -1
    outer loop
      vertex 11 1.41421 0
      vertex 8.16818 -3.779 0
      vertex 8.78958 -1.93473 0
    endloop
  endfacet
  facet normal 0 0 -1
    outer loop
      vertex 10.8655 -1.27971 0
      vertex 14.5355 -2.12132 0
      vertex 13.1213 -3.53553 0
    endloop
  endfacet
  facet normal 0 0 -1
    outer loop
      vertex 10.8655 -1.27971 0
      vertex 11 1.41421 0
      vertex 14.5355 -2.12132 0
    endloop
  endfacet
  facet normal 0 0 -1
    outer loop
      vertex 8.16818 -3.779 0
      vertex 11 1.41421 0
      vertex 10.8655 -1.27971 0
    endloop
  endfacet
  facet normal 0 0 -1
    outer loop
      vertex 10.049 -4.4741 0
      vertex 8.16818 -3.779 0
      vertex 10.7596 -2.28703 0
    endloop
  endfacet
  facet normal 0 0 -1
    outer loop
      vertex 8.16818 -3.779 0
      vertex 10.8655 -1.27971 0
      vertex 10.7596 -2.28703 0
    endloop
  endfacet
  facet normal 0 0 -1
    outer loop
      vertex 7.16484 -5.44657 0
      vertex 10.049 -4.4741 0
      vertex 5.82648 -6.85946 0
    endloop
  endfacet
  facet normal 0 0 -1
    outer loop
      vertex -10.7596 -2.28703 0
      vertex -3.39919 -10.4616 0
      vertex -5.5 -9.52628 0
    endloop
  endfacet
  facet normal 0 0 -1
    outer loop
      vertex 4.21568 -7.95161 0
      vertex 8.89919 -6.46564 0
      vertex 2.40775 -8.67195 0
    endloop
  endfacet
  facet normal 0 0 -1
    outer loop
      vertex 2.40775 -8.67195 0
      vertex 8.89919 -6.46564 0
      vertex 7.36044 -8.17459 0
    endloop
  endfacet
  facet normal 0 0 -1
    outer loop
      vertex 2.40775 -8.67195 0
      vertex 7.36044 -8.17459 0
      vertex 0.48725 -8.9868 0
    endloop
  endfacet
  facet normal 0 0 -1
    outer loop
      vertex 0.48725 -8.9868 0
      vertex 7.36044 -8.17459 0
      vertex 5.5 -9.52628 0
    endloop
  endfacet
  facet normal 0 0 -1
    outer loop
      vertex 0.48725 -8.9868 0
      vertex 5.5 -9.52628 0
      vertex -1.45604 -8.88144 0
    endloop
  endfacet
  facet normal 0 0 -1
    outer loop
      vertex -1.45604 -8.88144 0
      vertex 5.5 -9.52628 0
      vertex 3.39919 -10.4616 0
    endloop
  endfacet
  facet normal 0 0 -1
    outer loop
      vertex -1.45604 -8.88144 0
      vertex 3.39919 -10.4616 0
      vertex -3.33124 -8.36079 0
    endloop
  endfacet
  facet normal 0 0 -1
    outer loop
      vertex -3.33124 -8.36079 0
      vertex 3.39919 -10.4616 0
      vertex 1.14981 -10.9397 0
    endloop
  endfacet
  facet normal 0 0 -1
    outer loop
      vertex -3.33124 -8.36079 0
      vertex 1.14981 -10.9397 0
      vertex -5.05068 -7.4492 0
    endloop
  endfacet
  facet normal 0 0 -1
    outer loop
      vertex -5.05068 -7.4492 0
      vertex 1.14981 -10.9397 0
      vertex -1.14981 -10.9397 0
    endloop
  endfacet
  facet normal 0 0 -1
    outer loop
      vertex -5.05068 -7.4492 0
      vertex -1.14981 -10.9397 0
      vertex -6.53396 -6.18929 0
    endloop
  endfacet
  facet normal 0 0 -1
    outer loop
      vertex -6.53396 -6.18929 0
      vertex -1.14981 -10.9397 0
      vertex -3.39919 -10.4616 0
    endloop
  endfacet
  facet normal 0 0 -1
    outer loop
      vertex -7.36044 -8.17459 0
      vertex -8.89919 -6.46564 0
      vertex -10.049 -4.4741 0
    endloop
  endfacet
  facet normal 0 0 -1
    outer loop
      vertex -6.53396 -6.18929 0
      vertex -3.39919 -10.4616 0
      vertex -10.7596 -2.28703 0
    endloop
  endfacet
  facet normal 0 0 -1
    outer loop
      vertex -10.8611 -1.32109 0
      vertex -8.52888 -2.87371 0
      vertex -7.71171 -4.63998 0
    endloop
  endfacet
  facet normal 0 0 -1
    outer loop
      vertex -10.8611 -1.32109 0
      vertex -7.71171 -4.63998 0
      vertex -6.53396 -6.18929 0
    endloop
  endfacet
  facet normal 0 0 -1
    outer loop
      vertex -10.8611 -1.32109 0
      vertex -6.53396 -6.18929 0
      vertex -10.7596 -2.28703 0
    endloop
  endfacet
  facet normal 0 0 -1
    outer loop
      vertex -9.88992 0.646564 0
      vertex -5.5 9.52628 0
      vertex -7.71171 4.63998 0
    endloop
  endfacet
  facet normal -1 0 0
    outer loop
      vertex -12.2135 -0.881678 0
      vertex -12.2135 -0.881678 10
      vertex -12.2135 0.881678 0
    endloop
  endfacet
  facet normal -1 0 0
    outer loop
      vertex -12.2135 0.881678 0
      vertex -12.2135 -0.881678 10
      vertex -12.2135 0.881678 10
    endloop
  endfacet
  facet normal -0.309017 -0.951056 0
    outer loop
      vertex -12.2135 -0.881678 10
      vertex -12.2135 -0.881678 0
      vertex -10.8611 -1.32109 0
    endloop
  endfacet
  facet normal -0.309017 -0.951056 0
    outer loop
      vertex -10.8611 -1.32109 10
      vertex -12.2135 -0.881678 10
      vertex -10.8611 -1.32109 0
    endloop
  endfacet
  facet normal -0.994522 -0.104528 0
    outer loop
      vertex -10.8611 -1.32109 0
      vertex -10.7596 -2.28703 0
      vertex -10.8611 -1.32109 10
    endloop
  endfacet
  facet normal -0.994522 -0.104528 0
    outer loop
      vertex -10.8611 -1.32109 10
      vertex -10.7596 -2.28703 0
      vertex -10.7596 -2.28703 10
    endloop
  endfacet
  facet normal -0.951056 -0.309017 0
    outer loop
      vertex -10.7596 -2.28703 0
      vertex -10.049 -4.4741 0
      vertex -10.7596 -2.28703 10
    endloop
  endfacet
  facet normal -0.951056 -0.309017 0
    outer loop
      vertex -10.7596 -2.28703 10
      vertex -10.049 -4.4741 0
      vertex -10.049 -4.4741 10
    endloop
  endfacet
  facet normal -0.866025 -0.5 0
    outer loop
      vertex -10.049 -4.4741 0
      vertex -8.89919 -6.46564 0
      vertex -10.049 -4.4741 10
    endloop
  endfacet
  facet normal -0.866025 -0.5 0
    outer loop
      vertex -10.049 -4.4741 10
      vertex -8.89919 -6.46564 0
      vertex -8.89919 -6.46564 10
    endloop
  endfacet
  facet normal -0.743145 -0.669131 0
    outer loop
      vertex -8.89919 -6.46564 0
      vertex -7.36044 -8.17459 0
      vertex -8.89919 -6.46564 10
    endloop
  endfacet
  facet normal -0.743145 -0.669131 0
    outer loop
      vertex -8.89919 -6.46564 10
      vertex -7.36044 -8.17459 0
      vertex -7.36044 -8.17459 10
    endloop
  endfacet
  facet normal -0.587785 -0.809017 0
    outer loop
      vertex -7.36044 -8.17459 10
      vertex -7.36044 -8.17459 0
      vertex -5.5 -9.52628 0
    endloop
  endfacet
  facet normal -0.587785 -0.809017 0
    outer loop
      vertex -5.5 -9.52628 10
      vertex -7.36044 -8.17459 10
      vertex -5.5 -9.52628 0
    endloop
  endfacet
  facet normal -0.406737 -0.913545 0
    outer loop
      vertex -5.5 -9.52628 10
      vertex -5.5 -9.52628 0
      vertex -3.39919 -10.4616 0
    endloop
  endfacet
  facet normal -0.406737 -0.913545 0
    outer loop
      vertex -3.39919 -10.4616 10
      vertex -5.5 -9.52628 10
      vertex -3.39919 -10.4616 0
    endloop
  endfacet
  facet normal -0.207912 -0.978148 0
    outer loop
      vertex -3.39919 -10.4616 10
      vertex -3.39919 -10.4616 0
      vertex -1.14981 -10.9397 0
    endloop
  endfacet
  facet normal -0.207912 -0.978148 0
    outer loop
      vertex -1.14981 -10.9397 10
      vertex -3.39919 -10.4616 10
      vertex -1.14981 -10.9397 0
    endloop
  endfacet
  facet normal 0 -1 0
    outer loop
      vertex -1.14981 -10.9397 10
      vertex -1.14981 -10.9397 0
      vertex 1.14981 -10.9397 0
    endloop
  endfacet
  facet normal 0 -1 0
    outer loop
      vertex 1.14981 -10.9397 10
      vertex -1.14981 -10.9397 10
      vertex 1.14981 -10.9397 0
    endloop
  endfacet
  facet normal 0.207912 -0.978148 0
    outer loop
      vertex 1.14981 -10.9397 10
      vertex 1.14981 -10.9397 0
      vertex 3.39919 -10.4616 0
    endloop
  endfacet
  facet normal 0.207912 -0.978148 0
    outer loop
      vertex 3.39919 -10.4616 10
      vertex 1.14981 -10.9397 10
      vertex 3.39919 -10.4616 0
    endloop
  endfacet
  facet normal 0.406737 -0.913545 0
    outer loop
      vertex 3.39919 -10.4616 10
      vertex 3.39919 -10.4616 0
      vertex 5.5 -9.52628 0
    endloop
  endfacet
  facet normal 0.406737 -0.913545 0
    outer loop
      vertex 5.5 -9.52628 10
      vertex 3.39919 -10.4616 10
      vertex 5.5 -9.52628 0
    endloop
  endfacet
  facet normal 0.587785 -0.809017 0
    outer loop
      vertex 5.5 -9.52628 10
      vertex 5.5 -9.52628 0
      vertex 7.36044 -8.17459 0
    endloop
  endfacet
  facet normal 0.587785 -0.809017 0
    outer loop
      vertex 7.36044 -8.17459 10
      vertex 5.5 -9.52628 10
      vertex 7.36044 -8.17459 0
    endloop
  endfacet
  facet normal 0.743145 -0.669131 0
    outer loop
      vertex 7.36044 -8.17459 10
      vertex 7.36044 -8.17459 0
      vertex 8.89919 -6.46564 0
    endloop
  endfacet
  facet normal 0.743145 -0.669131 0
    outer loop
      vertex 8.89919 -6.46564 10
      vertex 7.36044 -8.17459 10
      vertex 8.89919 -6.46564 0
    endloop
  endfacet
  facet normal 0.866025 -0.5 0
    outer loop
      vertex 8.89919 -6.46564 10
      vertex 8.89919 -6.46564 0
      vertex 10.049 -4.4741 0
    endloop
  endfacet
  facet normal 0.866025 -0.5 0
    outer loop
      vertex 10.049 -4.4741 10
      vertex 8.89919 -6.46564 10
      vertex 10.049 -4.4741 0
    endloop
  endfacet
  facet normal 0.951056 -0.309017 0
    outer loop
      vertex 10.049 -4.4741 10
      vertex 10.049 -4.4741 0
      vertex 10.7596 -2.28703 0
    endloop
  endfacet
  facet normal 0.951056 -0.309017 0
    outer loop
      vertex 10.7596 -2.28703 10
      vertex 10.049 -4.4741 10
      vertex 10.7596 -2.28703 0
    endloop
  endfacet
  facet normal 0.994522 -0.104528 0
    outer loop
      vertex 10.7596 -2.28703 10
      vertex 10.7596 -2.28703 0
      vertex 10.8655 -1.27971 0
    endloop
  endfacet
  facet normal 0.994522 -0.104528 0
    outer loop
      vertex 10.8655 -1.27971 10
      vertex 10.7596 -2.28703 10
      vertex 10.8655 -1.27971 0
    endloop
  endfacet
  facet normal -0.707107 -0.707107 0
    outer loop
      vertex 10.8655 -1.27971 0
      vertex 13.1213 -3.53553 0
      vertex 10.8655 -1.27971 10
    endloop
  endfacet
  facet normal -0.707107 -0.707107 0
    outer loop
      vertex 10.8655 -1.27971 10
      vertex 13.1213 -3.53553 0
      vertex 13.1213 -3.53553 10
    endloop
  endfacet
  facet normal 0.707107 -0.707107 0
    outer loop
      vertex 13.1213 -3.53553 10
      vertex 13.1213 -3.53553 0
      vertex 14.5355 -2.12132 0
    endloop
  endfacet
  facet normal 0.707107 -0.707107 0
    outer loop
      vertex 14.5355 -2.12132 10
      vertex 13.1213 -3.53553 10
      vertex 14.5355 -2.12132 0
    endloop
  endfacet
  facet normal 0.707107 0.707107 0
    outer loop
      vertex 14.5355 -2.12132 0
      vertex 11 1.41421 0
      vertex 11 1.41421 10
    endloop
  endfacet
  facet normal 0.707107 0.707107 0
    outer loop
      vertex 14.5355 -2.12132 10
      vertex 14.5355 -2.12132 0
      vertex 11 1.41421 10
    endloop
  endfacet
  facet normal 1 0 0
    outer loop
      vertex 11 1.41421 10
      vertex 11 1.41421 0
      vertex 11 8.17157 0
    endloop
  endfacet
  facet normal 1 0 0
    outer loop
      vertex 11 8.17157 10
      vertex 11 1.41421 10
      vertex 11 8.17157 0
    endloop
  endfacet
  facet normal 0.707107 -0.707107 0
    outer loop
      vertex 11 8.17157 10
      vertex 11 8.17157 0
      vertex 14.5355 11.7071 0
    endloop
  endfacet
  facet normal 0.707107 -0.707107 0
    outer loop
      vertex 14.5355 11.7071 10
      vertex 11 8.17157 10
      vertex 14.5355 11.7071 0
    endloop
  endfacet
  facet normal 0.707107 0.707107 0
    outer loop
      vertex 13.1213 13.1213 0
      vertex 13.1213 13.1213 10
      vertex 14.5355 11.7071 0
    endloop
  endfacet
  facet normal 0.707107 0.707107 0
    outer loop
      vertex 14.5355 11.7071 0
      vertex 13.1213 13.1213 10
      vertex 14.5355 11.7071 10
    endloop
  endfacet
  facet normal -0.707107 0.707107 0
    outer loop
      vertex 11 11 0
      vertex 11 11 10
      vertex 13.1213 13.1213 0
    endloop
  endfacet
  facet normal -0.707107 0.707107 0
    outer loop
      vertex 13.1213 13.1213 0
      vertex 11 11 10
      vertex 13.1213 13.1213 10
    endloop
  endfacet
  facet normal 0 1 0
    outer loop
      vertex 9 11 0
      vertex 9 11 10
      vertex 11 11 0
    endloop
  endfacet
  facet normal 0 1 0
    outer loop
      vertex 11 11 0
      vertex 9 11 10
      vertex 11 11 10
    endloop
  endfacet
  facet normal -1 0 0
    outer loop
      vertex 9 0 0
      vertex 9 0 10
      vertex 9 11 0
    endloop
  endfacet
  facet normal -1 0 0
    outer loop
      vertex 9 11 0
      vertex 9 0 10
      vertex 9 11 10
    endloop
  endfacet
  facet normal -0.994138 0.108119 0
    outer loop
      vertex 9 0 10
      vertex 9 0 0
      vertex 8.78958 -1.93473 10
    endloop
  endfacet
  facet normal -0.994138 0.108119 0
    outer loop
      vertex 8.78958 -1.93473 10
      vertex 9 0 0
      vertex 8.78958 -1.93473 0
    endloop
  endfacet
  facet normal -0.947653 0.319301 0
    outer loop
      vertex 8.78958 -1.93473 10
      vertex 8.78958 -1.93473 0
      vertex 8.16818 -3.779 10
    endloop
  endfacet
  facet normal -0.947653 0.319301 0
    outer loop
      vertex 8.16818 -3.779 10
      vertex 8.78958 -1.93473 0
      vertex 8.16818 -3.779 0
    endloop
  endfacet
  facet normal -0.856857 0.515554 0
    outer loop
      vertex 8.16818 -3.779 10
      vertex 8.16818 -3.779 0
      vertex 7.16484 -5.44657 10
    endloop
  endfacet
  facet normal -0.856857 0.515554 0
    outer loop
      vertex 7.16484 -5.44657 10
      vertex 8.16818 -3.779 0
      vertex 7.16484 -5.44657 0
    endloop
  endfacet
  facet normal -0.725995 0.6877 0
    outer loop
      vertex 7.16484 -5.44657 10
      vertex 7.16484 -5.44657 0
      vertex 5.82648 -6.85946 10
    endloop
  endfacet
  facet normal -0.725995 0.6877 0
    outer loop
      vertex 5.82648 -6.85946 10
      vertex 7.16484 -5.44657 0
      vertex 5.82648 -6.85946 0
    endloop
  endfacet
  facet normal -0.561187 0.827689 0
    outer loop
      vertex 5.82648 -6.85946 10
      vertex 5.82648 -6.85946 0
      vertex 4.21568 -7.95161 10
    endloop
  endfacet
  facet normal -0.561187 0.827689 0
    outer loop
      vertex 4.21568 -7.95161 10
      vertex 5.82648 -6.85946 0
      vertex 4.21568 -7.95161 0
    endloop
  endfacet
  facet normal -0.370138 0.928977 0
    outer loop
      vertex 4.21568 -7.95161 10
      vertex 4.21568 -7.95161 0
      vertex 2.40775 -8.67195 10
    endloop
  endfacet
  facet normal -0.370138 0.928977 0
    outer loop
      vertex 2.40775 -8.67195 10
      vertex 4.21568 -7.95161 0
      vertex 2.40775 -8.67195 0
    endloop
  endfacet
  facet normal -0.161782 0.986827 0
    outer loop
      vertex 2.40775 -8.67195 10
      vertex 2.40775 -8.67195 0
      vertex 0.48725 -8.9868 10
    endloop
  endfacet
  facet normal -0.161782 0.986827 0
    outer loop
      vertex 0.48725 -8.9868 10
      vertex 2.40775 -8.67195 0
      vertex 0.48725 -8.9868 0
    endloop
  endfacet
  facet normal 0.0541389 0.998533 0
    outer loop
      vertex 0.48725 -8.9868 10
      vertex 0.48725 -8.9868 0
      vertex -1.45604 -8.88144 10
    endloop
  endfacet
  facet normal 0.0541389 0.998533 0
    outer loop
      vertex -1.45604 -8.88144 10
      vertex 0.48725 -8.9868 0
      vertex -1.45604 -8.88144 0
    endloop
  endfacet
  facet normal 0.267529 0.96355 0
    outer loop
      vertex -1.45604 -8.88144 10
      vertex -1.45604 -8.88144 0
      vertex -3.33124 -8.36079 10
    endloop
  endfacet
  facet normal 0.267529 0.96355 0
    outer loop
      vertex -3.33124 -8.36079 10
      vertex -1.45604 -8.88144 0
      vertex -3.33124 -8.36079 0
    endloop
  endfacet
  facet normal 0.468408 0.883512 0
    outer loop
      vertex -3.33124 -8.36079 10
      vertex -3.33124 -8.36079 0
      vertex -5.05068 -7.4492 10
    endloop
  endfacet
  facet normal 0.468408 0.883512 0
    outer loop
      vertex -5.05068 -7.4492 10
      vertex -3.33124 -8.36079 0
      vertex -5.05068 -7.4492 0
    endloop
  endfacet
  facet normal 0.647387 0.762162 0
    outer loop
      vertex -5.05068 -7.4492 10
      vertex -5.05068 -7.4492 0
      vertex -6.53396 -6.18929 10
    endloop
  endfacet
  facet normal 0.647387 0.762162 0
    outer loop
      vertex -6.53396 -6.18929 10
      vertex -5.05068 -7.4492 0
      vertex -6.53396 -6.18929 0
    endloop
  endfacet
  facet normal 0.796093 0.605175 0
    outer loop
      vertex -7.71171 -4.63998 10
      vertex -6.53396 -6.18929 10
      vertex -6.53396 -6.18929 0
    endloop
  endfacet
  facet normal 0.796093 0.605175 0
    outer loop
      vertex -7.71171 -4.63998 0
      vertex -7.71171 -4.63998 10
      vertex -6.53396 -6.18929 0
    endloop
  endfacet
  facet normal 0.907575 0.419889 0
    outer loop
      vertex -8.52888 -2.87371 10
      vertex -7.71171 -4.63998 10
      vertex -7.71171 -4.63998 0
    endloop
  endfacet
  facet normal 0.907575 0.419889 0
    outer loop
      vertex -8.52888 -2.87371 0
      vertex -8.52888 -2.87371 10
      vertex -7.71171 -4.63998 0
    endloop
  endfacet
  facet normal 0.976621 0.21497 0
    outer loop
      vertex -8.94724 -0.973071 10
      vertex -8.52888 -2.87371 10
      vertex -8.52888 -2.87371 0
    endloop
  endfacet
  facet normal 0.976621 0.21497 0
    outer loop
      vertex -8.94724 -0.973071 0
      vertex -8.94724 -0.973071 10
      vertex -8.52888 -2.87371 0
    endloop
  endfacet
  facet normal 1 0 0
    outer loop
      vertex -8.94724 -0.952858 0
      vertex -8.94724 -0.952858 10
      vertex -8.94724 -0.973071 10
    endloop
  endfacet
  facet normal 1 0 0
    outer loop
      vertex -8.94724 -0.973071 0
      vertex -8.94724 -0.952858 0
      vertex -8.94724 -0.973071 10
    endloop
  endfacet
  facet normal 0.309017 0.951057 0
    outer loop
      vertex -8.94724 -0.952858 10
      vertex -8.94724 -0.952858 0
      vertex -9.88992 -0.646564 10
    endloop
  endfacet
  facet normal 0.309017 0.951057 0
    outer loop
      vertex -9.88992 -0.646564 10
      vertex -8.94724 -0.952858 0
      vertex -9.88992 -0.646564 0
    endloop
  endfacet
  facet normal 1 0 0
    outer loop
      vertex -9.88992 0.646564 0
      vertex -9.88992 0.646564 10
      vertex -9.88992 -0.646564 10
    endloop
  endfacet
  facet normal 1 0 0
    outer loop
      vertex -9.88992 -0.646564 0
      vertex -9.88992 0.646564 0
      vertex -9.88992 -0.646564 10
    endloop
  endfacet
  facet normal 0.309017 -0.951057 0
    outer loop
      vertex -8.94724 0.952858 0
      vertex -8.94724 0.952858 10
      vertex -9.88992 0.646564 10
    endloop
  endfacet
  facet normal 0.309017 -0.951057 0
    outer loop
      vertex -9.88992 0.646564 0
      vertex -8.94724 0.952858 0
      vertex -9.88992 0.646564 10
    endloop
  endfacet
  facet normal 1 0 0
    outer loop
      vertex -8.94724 0.973071 0
      vertex -8.94724 0.973071 10
      vertex -8.94724 0.952858 10
    endloop
  endfacet
  facet normal 1 0 0
    outer loop
      vertex -8.94724 0.952858 0
      vertex -8.94724 0.973071 0
      vertex -8.94724 0.952858 10
    endloop
  endfacet
  facet normal 0.976621 -0.21497 0
    outer loop
      vertex -8.52888 2.87371 0
      vertex -8.52888 2.87371 10
      vertex -8.94724 0.973071 10
    endloop
  endfacet
  facet normal 0.976621 -0.21497 0
    outer loop
      vertex -8.94724 0.973071 0
      vertex -8.52888 2.87371 0
      vertex -8.94724 0.973071 10
    endloop
  endfacet
  facet normal 0.907575 -0.419889 0
    outer loop
      vertex -7.71171 4.63998 0
      vertex -7.71171 4.63998 10
      vertex -8.52888 2.87371 10
    endloop
  endfacet
  facet normal 0.907575 -0.419889 0
    outer loop
      vertex -8.52888 2.87371 0
      vertex -7.71171 4.63998 0
      vertex -8.52888 2.87371 10
    endloop
  endfacet
  facet normal 0.796093 -0.605175 0
    outer loop
      vertex -6.53396 6.18929 0
      vertex -6.53396 6.18929 10
      vertex -7.71171 4.63998 10
    endloop
  endfacet
  facet normal 0.796093 -0.605175 0
    outer loop
      vertex -7.71171 4.63998 0
      vertex -6.53396 6.18929 0
      vertex -7.71171 4.63998 10
    endloop
  endfacet
  facet normal 0.647387 -0.762162 0
    outer loop
      vertex -5.05068 7.4492 0
      vertex -5.05068 7.4492 10
      vertex -6.53396 6.18929 10
    endloop
  endfacet
  facet normal 0.647387 -0.762162 0
    outer loop
      vertex -6.53396 6.18929 0
      vertex -5.05068 7.4492 0
      vertex -6.53396 6.18929 10
    endloop
  endfacet
  facet normal 0.468408 -0.883512 0
    outer loop
      vertex -3.33124 8.36079 0
      vertex -3.33124 8.36079 10
      vertex -5.05068 7.4492 10
    endloop
  endfacet
  facet normal 0.468408 -0.883512 0
    outer loop
      vertex -5.05068 7.4492 0
      vertex -3.33124 8.36079 0
      vertex -5.05068 7.4492 10
    endloop
  endfacet
  facet normal 0.267529 -0.96355 0
    outer loop
      vertex -1.45604 8.88144 0
      vertex -1.45604 8.88144 10
      vertex -3.33124 8.36079 10
    endloop
  endfacet
  facet normal 0.267529 -0.96355 0
    outer loop
      vertex -3.33124 8.36079 0
      vertex -1.45604 8.88144 0
      vertex -3.33124 8.36079 10
    endloop
  endfacet
  facet normal 0.0541389 -0.998533 0
    outer loop
      vertex 0 8.96038 0
      vertex 0 8.96038 10
      vertex -1.45604 8.88144 10
    endloop
  endfacet
  facet normal 0.0541389 -0.998533 0
    outer loop
      vertex -1.45604 8.88144 0
      vertex 0 8.96038 0
      vertex -1.45604 8.88144 10
    endloop
  endfacet
  facet normal 1 0 0
    outer loop
      vertex 0 9 0
      vertex 0 9 10
      vertex 0 8.96038 10
    endloop
  endfacet
  facet normal 1 0 0
    outer loop
      vertex 0 8.96038 0
      vertex 0 9 0
      vertex 0 8.96038 10
    endloop
  endfacet
  facet normal 0 -1 0
    outer loop
      vertex 0 9 10
      vertex 0 9 0
      vertex 5.5 9 0
    endloop
  endfacet
  facet normal 0 -1 0
    outer loop
      vertex 5.5 9 10
      vertex 0 9 10
      vertex 5.5 9 0
    endloop
  endfacet
  facet normal 1 0 0
    outer loop
      vertex 5.5 9 10
      vertex 5.5 9 0
      vertex 5.5 11 0
    endloop
  endfacet
  facet normal 1 0 0
    outer loop
      vertex 5.5 11 10
      vertex 5.5 9 10
      vertex 5.5 11 0
    endloop
  endfacet
  facet normal 0 1 0
    outer loop
      vertex 0 11 0
      vertex 0 11 10
      vertex 5.5 11 0
    endloop
  endfacet
  facet normal 0 1 0
    outer loop
      vertex 5.5 11 0
      vertex 0 11 10
      vertex 5.5 11 10
    endloop
  endfacet
  facet normal -1 0 0
    outer loop
      vertex 0 10.9397 0
      vertex 0 10.9397 10
      vertex 0 11 0
    endloop
  endfacet
  facet normal -1 0 0
    outer loop
      vertex 0 11 0
      vertex 0 10.9397 10
      vertex 0 11 10
    endloop
  endfacet
  facet normal 0 1 0
    outer loop
      vertex -1.14981 10.9397 0
      vertex -1.14981 10.9397 10
      vertex 0 10.9397 0
    endloop
  endfacet
  facet normal 0 1 0
    outer loop
      vertex 0 10.9397 0
      vertex -1.14981 10.9397 10
      vertex 0 10.9397 10
    endloop
  endfacet
  facet normal -0.207912 0.978148 0
    outer loop
      vertex -3.39919 10.4616 0
      vertex -3.39919 10.4616 10
      vertex -1.14981 10.9397 0
    endloop
  endfacet
  facet normal -0.207912 0.978148 0
    outer loop
      vertex -1.14981 10.9397 0
      vertex -3.39919 10.4616 10
      vertex -1.14981 10.9397 10
    endloop
  endfacet
  facet normal -0.406737 0.913545 0
    outer loop
      vertex -5.5 9.52628 0
      vertex -5.5 9.52628 10
      vertex -3.39919 10.4616 0
    endloop
  endfacet
  facet normal -0.406737 0.913545 0
    outer loop
      vertex -3.39919 10.4616 0
      vertex -5.5 9.52628 10
      vertex -3.39919 10.4616 10
    endloop
  endfacet
  facet normal -0.587785 0.809017 0
    outer loop
      vertex -7.36044 8.17459 0
      vertex -7.36044 8.17459 10
      vertex -5.5 9.52628 0
    endloop
  endfacet
  facet normal -0.587785 0.809017 0
    outer loop
      vertex -5.5 9.52628 0
      vertex -7.36044 8.17459 10
      vertex -5.5 9.52628 10
    endloop
  endfacet
  facet normal -0.743145 0.669131 0
    outer loop
      vertex -8.89919 6.46564 0
      vertex -8.89919 6.46564 10
      vertex -7.36044 8.17459 0
    endloop
  endfacet
  facet normal -0.743145 0.669131 0
    outer loop
      vertex -7.36044 8.17459 0
      vertex -8.89919 6.46564 10
      vertex -7.36044 8.17459 10
    endloop
  endfacet
  facet normal -0.866025 0.5 0
    outer loop
      vertex -10.049 4.4741 0
      vertex -10.049 4.4741 10
      vertex -8.89919 6.46564 0
    endloop
  endfacet
  facet normal -0.866025 0.5 0
    outer loop
      vertex -8.89919 6.46564 0
      vertex -10.049 4.4741 10
      vertex -8.89919 6.46564 10
    endloop
  endfacet
  facet normal -0.951056 0.309017 0
    outer loop
      vertex -10.7596 2.28703 0
      vertex -10.7596 2.28703 10
      vertex -10.049 4.4741 0
    endloop
  endfacet
  facet normal -0.951056 0.309017 0
    outer loop
      vertex -10.049 4.4741 0
      vertex -10.7596 2.28703 10
      vertex -10.049 4.4741 10
    endloop
  endfacet
  facet normal -0.994522 0.104528 0
    outer loop
      vertex -10.8611 1.32109 0
      vertex -10.8611 1.32109 10
      vertex -10.7596 2.28703 0
    endloop
  endfacet
  facet normal -0.994522 0.104528 0
    outer loop
      vertex -10.7596 2.28703 0
      vertex -10.8611 1.32109 10
      vertex -10.7596 2.28703 10
    endloop
  endfacet
  facet normal -0.309017 0.951056 0
    outer loop
      vertex -12.2135 0.881678 0
      vertex -12.2135 0.881678 10
      vertex -10.8611 1.32109 0
    endloop
  endfacet
  facet normal -0.309017 0.951056 0
    outer loop
      vertex -10.8611 1.32109 0
      vertex -12.2135 0.881678 10
      vertex -10.8611 1.32109 10
    endloop
  endfacet
  facet normal 0 0 1
    outer loop
      vertex -10.7596 -2.28703 10
      vertex -10.049 -4.4741 10
      vertex -10.8611 -1.32109 10
    endloop
  endfacet
  facet normal 0 0 1
    outer loop
      vertex -12.2135 0.881678 10
      vertex -12.2135 -0.881678 10
      vertex -10.8611 -1.32109 10
    endloop
  endfacet
  facet normal 0 0 1
    outer loop
      vertex -5.5 -9.52628 10
      vertex -12.2135 0.881678 10
      vertex -10.8611 -1.32109 10
    endloop
  endfacet
  facet normal 0 0 1
    outer loop
      vertex -10.049 -4.4741 10
      vertex -8.89919 -6.46564 10
      vertex -10.8611 -1.32109 10
    endloop
  endfacet
  facet normal 0 0 1
    outer loop
      vertex -8.89919 -6.46564 10
      vertex -7.36044 -8.17459 10
      vertex -10.8611 -1.32109 10
    endloop
  endfacet
  facet normal 0 0 1
    outer loop
      vertex -7.36044 -8.17459 10
      vertex -5.5 -9.52628 10
      vertex -10.8611 -1.32109 10
    endloop
  endfacet
  facet normal 0 0 1
    outer loop
      vertex -5.5 -9.52628 10
      vertex -3.39919 -10.4616 10
      vertex -12.2135 0.881678 10
    endloop
  endfacet
  facet normal 0 0 1
    outer loop
      vertex 8.78958 -1.93473 10
      vertex 8.16818 -3.779 10
      vertex 10.7596 -2.28703 10
    endloop
  endfacet
  facet normal 0 0 1
    outer loop
      vertex 13.1213 -3.53553 10
      vertex 14.5355 -2.12132 10
      vertex 10.8655 -1.27971 10
    endloop
  endfacet
  facet normal 0 0 1
    outer loop
      vertex 14.5355 -2.12132 10
      vertex 11 1.41421 10
      vertex 10.8655 -1.27971 10
    endloop
  endfacet
  facet normal 0 0 1
    outer loop
      vertex 0 10.9397 10
      vertex -1.14981 10.9397 10
      vertex -5.05068 7.4492 10
    endloop
  endfacet
  facet normal 0 0 1
    outer loop
      vertex 14.5355 11.7071 10
      vertex 13.1213 13.1213 10
      vertex 11 11 10
    endloop
  endfacet
  facet normal 0 0 1
    outer loop
      vertex -1.45604 8.88144 10
      vertex 0 8.96038 10
      vertex 0 9 10
    endloop
  endfacet
  facet normal 0 0 1
    outer loop
      vertex 4.21568 -7.95161 10
      vertex 2.40775 -8.67195 10
      vertex 5.5 -9.52628 10
    endloop
  endfacet
  facet normal 0 0 1
    outer loop
      vertex 10.8655 -1.27971 10
      vertex 11 1.41421 10
      vertex 9 0 10
    endloop
  endfacet
  facet normal 0 0 1
    outer loop
      vertex 8.16818 -3.779 10
      vertex 7.16484 -5.44657 10
      vertex 10.049 -4.4741 10
    endloop
  endfacet
  facet normal 0 0 1
    outer loop
      vertex 10.7596 -2.28703 10
      vertex 10.8655 -1.27971 10
      vertex 8.78958 -1.93473 10
    endloop
  endfacet
  facet normal 0 0 1
    outer loop
      vertex 7.16484 -5.44657 10
      vertex 5.82648 -6.85946 10
      vertex 8.89919 -6.46564 10
    endloop
  endfacet
  facet normal 0 0 1
    outer loop
      vertex 10.049 -4.4741 10
      vertex 10.7596 -2.28703 10
      vertex 8.16818 -3.779 10
    endloop
  endfacet
  facet normal 0 0 1
    outer loop
      vertex 5.82648 -6.85946 10
      vertex 4.21568 -7.95161 10
      vertex 7.36044 -8.17459 10
    endloop
  endfacet
  facet normal 0 0 1
    outer loop
      vertex 8.89919 -6.46564 10
      vertex 10.049 -4.4741 10
      vertex 7.16484 -5.44657 10
    endloop
  endfacet
  facet normal 0 0 1
    outer loop
      vertex 7.36044 -8.17459 10
      vertex 8.89919 -6.46564 10
      vertex 5.82648 -6.85946 10
    endloop
  endfacet
  facet normal 0 0 1
    outer loop
      vertex -8.94724 0.973071 10
      vertex -8.52888 2.87371 10
      vertex -10.8611 1.32109 10
    endloop
  endfacet
  facet normal 0 0 1
    outer loop
      vertex 5.5 -9.52628 10
      vertex 7.36044 -8.17459 10
      vertex 4.21568 -7.95161 10
    endloop
  endfacet
  facet normal 0 0 1
    outer loop
      vertex -8.94724 -0.952858 10
      vertex -9.88992 -0.646564 10
      vertex -8.94724 -0.973071 10
    endloop
  endfacet
  facet normal 0 0 1
    outer loop
      vertex 3.39919 -10.4616 10
      vertex 5.5 -9.52628 10
      vertex 2.40775 -8.67195 10
    endloop
  endfacet
  facet normal 0 0 1
    outer loop
      vertex -3.33124 -8.36079 10
      vertex -5.05068 -7.4492 10
      vertex -1.14981 -10.9397 10
    endloop
  endfacet
  facet normal 0 0 1
    outer loop
      vertex 1.14981 -10.9397 10
      vertex 3.39919 -10.4616 10
      vertex 0.48725 -8.9868 10
    endloop
  endfacet
  facet normal 0 0 1
    outer loop
      vertex -1.14981 -10.9397 10
      vertex 1.14981 -10.9397 10
      vertex -1.45604 -8.88144 10
    endloop
  endfacet
  facet normal 0 0 1
    outer loop
      vertex -1.14981 -10.9397 10
      vertex -1.45604 -8.88144 10
      vertex -3.33124 -8.36079 10
    endloop
  endfacet
  facet normal 0 0 1
    outer loop
      vertex -3.39919 -10.4616 10
      vertex -1.14981 -10.9397 10
      vertex -5.05068 -7.4492 10
    endloop
  endfacet
  facet normal 0 0 1
    outer loop
      vertex -3.39919 -10.4616 10
      vertex -6.53396 -6.18929 10
      vertex -12.2135 0.881678 10
    endloop
  endfacet
  facet normal 0 0 1
    outer loop
      vertex -3.39919 -10.4616 10
      vertex -5.05068 -7.4492 10
      vertex -6.53396 -6.18929 10
    endloop
  endfacet
  facet normal 0 0 1
    outer loop
      vertex -6.53396 -6.18929 10
      vertex -7.71171 -4.63998 10
      vertex -12.2135 0.881678 10
    endloop
  endfacet
  facet normal 0 0 1
    outer loop
      vertex 2.40775 -8.67195 10
      vertex 0.48725 -8.9868 10
      vertex 3.39919 -10.4616 10
    endloop
  endfacet
  facet normal 0 0 1
    outer loop
      vertex 0.48725 -8.9868 10
      vertex -1.45604 -8.88144 10
      vertex 1.14981 -10.9397 10
    endloop
  endfacet
  facet normal 0 0 1
    outer loop
      vertex -7.71171 -4.63998 10
      vertex -8.52888 -2.87371 10
      vertex -12.2135 0.881678 10
    endloop
  endfacet
  facet normal 0 0 1
    outer loop
      vertex -9.88992 0.646564 10
      vertex -8.94724 0.952858 10
      vertex -12.2135 0.881678 10
    endloop
  endfacet
  facet normal 0 0 1
    outer loop
      vertex 9 0 10
      vertex 8.78958 -1.93473 10
      vertex 10.8655 -1.27971 10
    endloop
  endfacet
  facet normal 0 0 1
    outer loop
      vertex -8.52888 -2.87371 10
      vertex -9.88992 -0.646564 10
      vertex -12.2135 0.881678 10
    endloop
  endfacet
  facet normal 0 0 1
    outer loop
      vertex -1.45604 8.88144 10
      vertex 5.5 11 10
      vertex -3.33124 8.36079 10
    endloop
  endfacet
  facet normal 0 0 1
    outer loop
      vertex 0 9 10
      vertex 5.5 11 10
      vertex -1.45604 8.88144 10
    endloop
  endfacet
  facet normal 0 0 1
    outer loop
      vertex -5.05068 7.4492 10
      vertex -1.14981 10.9397 10
      vertex -6.53396 6.18929 10
    endloop
  endfacet
  facet normal 0 0 1
    outer loop
      vertex -10.049 4.4741 10
      vertex -5.5 9.52628 10
      vertex -7.36044 8.17459 10
    endloop
  endfacet
  facet normal 0 0 1
    outer loop
      vertex -10.049 4.4741 10
      vertex -3.39919 10.4616 10
      vertex -5.5 9.52628 10
    endloop
  endfacet
  facet normal 0 0 1
    outer loop
      vertex 0 10.9397 10
      vertex -5.05068 7.4492 10
      vertex -3.33124 8.36079 10
    endloop
  endfacet
  facet normal 0 0 1
    outer loop
      vertex 5.5 9 10
      vertex 5.5 11 10
      vertex 0 9 10
    endloop
  endfacet
  facet normal 0 0 1
    outer loop
      vertex 5.5 11 10
      vertex 0 10.9397 10
      vertex -3.33124 8.36079 10
    endloop
  endfacet
  facet normal 0 0 1
    outer loop
      vertex 5.5 11 10
      vertex 0 11 10
      vertex 0 10.9397 10
    endloop
  endfacet
  facet normal 0 0 1
    outer loop
      vertex -1.14981 10.9397 10
      vertex -3.39919 10.4616 10
      vertex -6.53396 6.18929 10
    endloop
  endfacet
  facet normal 0 0 1
    outer loop
      vertex -10.7596 2.28703 10
      vertex -7.71171 4.63998 10
      vertex -6.53396 6.18929 10
    endloop
  endfacet
  facet normal 0 0 1
    outer loop
      vertex -10.7596 2.28703 10
      vertex -8.52888 2.87371 10
      vertex -7.71171 4.63998 10
    endloop
  endfacet
  facet normal 0 0 1
    outer loop
      vertex -10.7596 2.28703 10
      vertex -10.8611 1.32109 10
      vertex -8.52888 2.87371 10
    endloop
  endfacet
  facet normal 0 0 1
    outer loop
      vertex -7.36044 8.17459 10
      vertex -8.89919 6.46564 10
      vertex -10.049 4.4741 10
    endloop
  endfacet
  facet normal 0 0 1
    outer loop
      vertex -6.53396 6.18929 10
      vertex -3.39919 10.4616 10
      vertex -10.7596 2.28703 10
    endloop
  endfacet
  facet normal 0 0 1
    outer loop
      vertex -8.52888 -2.87371 10
      vertex -8.94724 -0.973071 10
      vertex -9.88992 -0.646564 10
    endloop
  endfacet
  facet normal 0 0 1
    outer loop
      vertex -9.88992 -0.646564 10
      vertex -9.88992 0.646564 10
      vertex -12.2135 0.881678 10
    endloop
  endfacet
  facet normal 0 0 1
    outer loop
      vertex -8.94724 0.952858 10
      vertex -8.94724 0.973071 10
      vertex -12.2135 0.881678 10
    endloop
  endfacet
  facet normal 0 0 1
    outer loop
      vertex -8.94724 0.973071 10
      vertex -10.8611 1.32109 10
      vertex -12.2135 0.881678 10
    endloop
  endfacet
  facet normal 0 0 1
    outer loop
      vertex -10.049 4.4741 10
      vertex -10.7596 2.28703 10
      vertex -3.39919 10.4616 10
    endloop
  endfacet
  facet normal 0 0 1
    outer loop
      vertex 11 11 10
      vertex 11 8.17157 10
      vertex 14.5355 11.7071 10
    endloop
  endfacet
  facet normal 0 0 1
    outer loop
      vertex 9 11 10
      vertex 11 8.17157 10
      vertex 11 11 10
    endloop
  endfacet
  facet normal 0 0 1
    outer loop
      vertex 9 11 10
      vertex 11 1.41421 10
      vertex 11 8.17157 10
    endloop
  endfacet
  facet normal 0 0 1
    outer loop
      vertex 9 11 10
      vertex 9 0 10
      vertex 11 1.41421 10
    endloop
  endfacet
endsolid OpenSCAD_Model
